<svg xmlns="http://www.w3.org/2000/svg" viewBox="0 0 957.78 1730.94"><g id="Layer_2" data-name="Layer 2"><path d="M1187.44,163l-13.12,11.78-36.75,33-56.46,50.69-72.27,64.89-84.17,75.58L832.5,481.69l-96.26,86.42L639.81,654.7,547.1,737.94,462,814.33l-73.53,66L330.4,932.51q-16.09,14.44-32.19,28.9c-9.45,8.51-19.65,16.52-27.11,26.94-6.2,8.66-10.39,19.17-9.64,29.8.69,9.89,5.62,19.12,12.08,26.65,11.75,13.67,27.58,24.86,41,36.91l54.64,49.06L442,1196.18l86.58,77.73,95.83,86L725,1450.28l100.9,90.6,96.72,86.84,88.06,79.07,74.92,67.27,57.32,51.46,35.22,31.63c1.17,1,9.27,6.63,9.27,8.32V689.38l-40.35,36.23-93.18,83.67-104.48,93.8c-24.73,22.21-49.36,44.55-74.21,66.63-8.38,7.45-17,14.31-22.59,24.24-5.08,8.95-7.48,19.71-5.11,29.72s9.29,18.49,16.89,25.53c33.53,31,68.15,61,102.17,91.58L1079,1241.71l75.78,68,6.49,5.82V1478l-472.67-424.4s-47.07-36.48-7.14-72.34l506-454.32Z" transform="translate(-261.37 -134.53)" fill="#072441"/><path d="M1187.44,163l31.71-28.47v364l-30.8,27.66-3.59,3.22-473.22,425s-7.53,6.93-11.07,14.86a35,35,0,0,0-3.35,16.18s-.43,10.95,8.88,24.22c0,0,6.59,9.08,7.82,9.56,0,0,7.87,7.72,8.68,8l438.76,394V1478L682,1047.53s-38.23-34.86,1.24-67.89L1187.44,527Z" transform="translate(-261.37 -134.53)" fill="#914aff"/><polygon points="926.07 554.85 957.78 526.38 957.78 1702.47 926.07 1730.94 926.07 554.85" fill="#914aff"/></g></svg>